<mxfile host="app.diagrams.net" modified="2024-02-20T06:25:10.643Z" agent="Mozilla/5.0 (Macintosh; Intel Mac OS X 10_15_7) AppleWebKit/537.36 (KHTML, like Gecko) Chrome/121.0.0.0 Safari/537.36" etag="RQVmQ9zVLLd8U4paFiQs" version="23.1.1" type="github">
  <diagram id="prtHgNgQTEPvFCAcTncT" name="Page-1">
    <mxGraphModel dx="2074" dy="1057" grid="1" gridSize="10" guides="1" tooltips="1" connect="1" arrows="1" fold="1" page="1" pageScale="1" pageWidth="827" pageHeight="1169" math="0" shadow="0">
      <root>
        <mxCell id="0" />
        <mxCell id="1" parent="0" />
        <mxCell id="VPEJIjTYBSFl-zxkoouf-6" style="edgeStyle=orthogonalEdgeStyle;rounded=1;orthogonalLoop=1;jettySize=auto;html=1;entryX=0.5;entryY=0;entryDx=0;entryDy=0;curved=0;" edge="1" parent="1" source="VPEJIjTYBSFl-zxkoouf-1" target="VPEJIjTYBSFl-zxkoouf-4">
          <mxGeometry relative="1" as="geometry" />
        </mxCell>
        <mxCell id="VPEJIjTYBSFl-zxkoouf-7" value="否" style="edgeLabel;html=1;align=center;verticalAlign=middle;resizable=0;points=[];" vertex="1" connectable="0" parent="VPEJIjTYBSFl-zxkoouf-6">
          <mxGeometry x="-0.056" y="2" relative="1" as="geometry">
            <mxPoint x="58" y="-143" as="offset" />
          </mxGeometry>
        </mxCell>
        <mxCell id="VPEJIjTYBSFl-zxkoouf-16" style="edgeStyle=orthogonalEdgeStyle;shape=connector;curved=0;rounded=1;orthogonalLoop=1;jettySize=auto;html=1;labelBackgroundColor=default;strokeColor=default;align=center;verticalAlign=middle;fontFamily=Helvetica;fontSize=11;fontColor=default;endArrow=classic;" edge="1" parent="1" source="VPEJIjTYBSFl-zxkoouf-1" target="VPEJIjTYBSFl-zxkoouf-8">
          <mxGeometry relative="1" as="geometry" />
        </mxCell>
        <mxCell id="VPEJIjTYBSFl-zxkoouf-18" value="是" style="edgeLabel;html=1;align=center;verticalAlign=middle;resizable=0;points=[];fontSize=11;fontFamily=Helvetica;fontColor=default;" vertex="1" connectable="0" parent="VPEJIjTYBSFl-zxkoouf-16">
          <mxGeometry x="-0.2667" y="-1" relative="1" as="geometry">
            <mxPoint as="offset" />
          </mxGeometry>
        </mxCell>
        <mxCell id="VPEJIjTYBSFl-zxkoouf-1" value="查渠道表，判断渠道是否要灰度到新系统" style="rhombus;whiteSpace=wrap;html=1;fillColor=#d5e8d4;strokeColor=#82b366;" vertex="1" parent="1">
          <mxGeometry x="224" y="290" width="190" height="100" as="geometry" />
        </mxCell>
        <mxCell id="VPEJIjTYBSFl-zxkoouf-3" style="edgeStyle=orthogonalEdgeStyle;rounded=0;orthogonalLoop=1;jettySize=auto;html=1;entryX=0.5;entryY=0;entryDx=0;entryDy=0;" edge="1" parent="1" source="VPEJIjTYBSFl-zxkoouf-2" target="VPEJIjTYBSFl-zxkoouf-1">
          <mxGeometry relative="1" as="geometry" />
        </mxCell>
        <mxCell id="VPEJIjTYBSFl-zxkoouf-2" value="请求" style="rounded=0;whiteSpace=wrap;html=1;fillColor=#dae8fc;strokeColor=#6c8ebf;" vertex="1" parent="1">
          <mxGeometry x="259" y="160" width="120" height="60" as="geometry" />
        </mxCell>
        <mxCell id="VPEJIjTYBSFl-zxkoouf-4" value="xyf-credit-system" style="rounded=0;whiteSpace=wrap;html=1;fillColor=#d5e8d4;strokeColor=#82b366;" vertex="1" parent="1">
          <mxGeometry x="60" y="760" width="120" height="60" as="geometry" />
        </mxCell>
        <mxCell id="VPEJIjTYBSFl-zxkoouf-5" value="openplatformcore" style="rounded=0;whiteSpace=wrap;html=1;fillColor=#d5e8d4;strokeColor=#82b366;" vertex="1" parent="1">
          <mxGeometry x="490" y="760" width="120" height="60" as="geometry" />
        </mxCell>
        <mxCell id="VPEJIjTYBSFl-zxkoouf-9" style="edgeStyle=orthogonalEdgeStyle;rounded=0;orthogonalLoop=1;jettySize=auto;html=1;entryX=0.5;entryY=0;entryDx=0;entryDy=0;" edge="1" parent="1" source="VPEJIjTYBSFl-zxkoouf-8" target="VPEJIjTYBSFl-zxkoouf-4">
          <mxGeometry relative="1" as="geometry" />
        </mxCell>
        <mxCell id="VPEJIjTYBSFl-zxkoouf-10" value="否" style="edgeLabel;html=1;align=center;verticalAlign=middle;resizable=0;points=[];" vertex="1" connectable="0" parent="VPEJIjTYBSFl-zxkoouf-9">
          <mxGeometry x="-0.7656" y="-3" relative="1" as="geometry">
            <mxPoint x="1" y="3" as="offset" />
          </mxGeometry>
        </mxCell>
        <mxCell id="VPEJIjTYBSFl-zxkoouf-17" style="edgeStyle=orthogonalEdgeStyle;shape=connector;curved=0;rounded=1;orthogonalLoop=1;jettySize=auto;html=1;labelBackgroundColor=default;strokeColor=default;align=center;verticalAlign=middle;fontFamily=Helvetica;fontSize=11;fontColor=default;endArrow=classic;" edge="1" parent="1" source="VPEJIjTYBSFl-zxkoouf-8" target="VPEJIjTYBSFl-zxkoouf-11">
          <mxGeometry relative="1" as="geometry" />
        </mxCell>
        <mxCell id="VPEJIjTYBSFl-zxkoouf-19" value="是" style="edgeLabel;html=1;align=center;verticalAlign=middle;resizable=0;points=[];fontSize=11;fontFamily=Helvetica;fontColor=default;" vertex="1" connectable="0" parent="VPEJIjTYBSFl-zxkoouf-17">
          <mxGeometry x="-0.1" relative="1" as="geometry">
            <mxPoint as="offset" />
          </mxGeometry>
        </mxCell>
        <mxCell id="VPEJIjTYBSFl-zxkoouf-8" value="查接口表，判断接口是否要灰度到新系统" style="rhombus;whiteSpace=wrap;html=1;fillColor=#d5e8d4;strokeColor=#82b366;" vertex="1" parent="1">
          <mxGeometry x="224" y="450" width="190" height="100" as="geometry" />
        </mxCell>
        <mxCell id="VPEJIjTYBSFl-zxkoouf-12" style="edgeStyle=orthogonalEdgeStyle;rounded=1;orthogonalLoop=1;jettySize=auto;html=1;entryX=0.5;entryY=0;entryDx=0;entryDy=0;curved=0;" edge="1" parent="1" source="VPEJIjTYBSFl-zxkoouf-11" target="VPEJIjTYBSFl-zxkoouf-4">
          <mxGeometry relative="1" as="geometry" />
        </mxCell>
        <mxCell id="VPEJIjTYBSFl-zxkoouf-13" value="否" style="edgeLabel;html=1;align=center;verticalAlign=middle;resizable=0;points=[];fontSize=11;fontFamily=Helvetica;fontColor=default;" vertex="1" connectable="0" parent="VPEJIjTYBSFl-zxkoouf-12">
          <mxGeometry x="-0.5047" y="-3" relative="1" as="geometry">
            <mxPoint x="9" y="3" as="offset" />
          </mxGeometry>
        </mxCell>
        <mxCell id="VPEJIjTYBSFl-zxkoouf-14" style="edgeStyle=orthogonalEdgeStyle;shape=connector;curved=0;rounded=1;orthogonalLoop=1;jettySize=auto;html=1;entryX=0.5;entryY=0;entryDx=0;entryDy=0;labelBackgroundColor=default;strokeColor=default;align=center;verticalAlign=middle;fontFamily=Helvetica;fontSize=11;fontColor=default;endArrow=classic;" edge="1" parent="1" source="VPEJIjTYBSFl-zxkoouf-11" target="VPEJIjTYBSFl-zxkoouf-5">
          <mxGeometry relative="1" as="geometry" />
        </mxCell>
        <mxCell id="VPEJIjTYBSFl-zxkoouf-15" value="是" style="edgeLabel;html=1;align=center;verticalAlign=middle;resizable=0;points=[];fontSize=11;fontFamily=Helvetica;fontColor=default;" vertex="1" connectable="0" parent="VPEJIjTYBSFl-zxkoouf-14">
          <mxGeometry x="-0.3659" relative="1" as="geometry">
            <mxPoint x="-12" as="offset" />
          </mxGeometry>
        </mxCell>
        <mxCell id="VPEJIjTYBSFl-zxkoouf-11" value="调用abtest，判断订单号/用户id是否命中灰度" style="rhombus;whiteSpace=wrap;html=1;fillColor=#d5e8d4;strokeColor=#82b366;" vertex="1" parent="1">
          <mxGeometry x="224" y="610" width="190" height="100" as="geometry" />
        </mxCell>
      </root>
    </mxGraphModel>
  </diagram>
</mxfile>
